<svg xmlns="http://www.w3.org/2000/svg" fill="none" viewBox="0 0 3381 245" height="245" width="3381">
<path fill="#FD6020" d="M899.4 232.958L1089.91 175.219V202.833C1089.91 219.471 1076.44 232.958 1059.83 232.958H899.4Z"></path>
<path stroke-width="3" stroke="#D9D9D9" fill="#5A31F4" d="M2566.79 7H2306.09C2286.71 7 2271 22.7353 2271 42.1458V202.812C2271 222.223 2286.71 237.958 2306.09 237.958H2566.79C2586.17 237.958 2601.88 222.223 2601.88 202.812V42.1458C2601.88 22.7353 2586.17 7 2566.79 7Z"></path>
<path fill="white" d="M2459.2 112.174C2459.2 127.198 2448.68 137.922 2433.98 137.922H2420.14C2419.99 137.922 2419.84 137.952 2419.7 138.011C2419.55 138.07 2419.42 138.156 2419.31 138.265C2419.21 138.373 2419.12 138.502 2419.06 138.643C2419.01 138.785 2418.98 138.936 2418.98 139.09V158.835C2418.98 159.143 2418.86 159.44 2418.64 159.658C2418.42 159.877 2418.13 160.001 2417.82 160.003H2408.13C2407.9 160.002 2407.67 159.933 2407.48 159.804C2407.29 159.676 2407.14 159.494 2407.05 159.281C2407 159.141 2406.96 158.992 2406.96 158.841V87.5885C2406.96 87.4355 2406.99 87.2837 2407.05 87.1421C2407.11 87.0004 2407.19 86.8716 2407.3 86.7631C2407.41 86.6546 2407.54 86.5685 2407.68 86.5097C2407.82 86.451 2407.97 86.4208 2408.12 86.4208H2434.05C2448.68 86.4038 2459.2 97.1283 2459.2 112.174ZM2447.12 112.174C2447.12 103.537 2441.23 97.2242 2433.26 97.2242H2420.14C2419.99 97.2242 2419.84 97.2544 2419.7 97.3132C2419.55 97.372 2419.42 97.4581 2419.31 97.5666C2419.21 97.6751 2419.12 97.8039 2419.06 97.9456C2419.01 98.0872 2418.98 98.2389 2418.98 98.392V125.888C2418.98 126.197 2419.1 126.493 2419.32 126.711C2419.53 126.929 2419.84 127.051 2420.14 127.051H2433.26C2441.23 127.107 2447.12 120.789 2447.12 112.174ZM2462.08 146.333C2461.98 144.03 2462.45 141.737 2463.46 139.663C2464.46 137.591 2465.98 135.803 2467.85 134.464C2471.63 131.615 2477.54 130.142 2486.21 129.838L2495.46 129.51V126.78C2495.46 121.307 2491.8 118.995 2485.91 118.995C2480.04 118.995 2476.31 121.082 2475.44 124.496C2475.37 124.736 2475.23 124.945 2475.02 125.092C2474.82 125.24 2474.58 125.315 2474.33 125.308H2465.21C2465.04 125.312 2464.87 125.28 2464.72 125.213C2464.56 125.145 2464.42 125.044 2464.31 124.917C2464.2 124.791 2464.12 124.641 2464.07 124.479C2464.03 124.318 2464.02 124.148 2464.04 123.981C2465.4 115.892 2472.11 109.742 2486.33 109.742C2501.45 109.742 2506.91 116.795 2506.91 130.255V158.835C2506.91 159.146 2506.78 159.445 2506.56 159.663C2506.34 159.882 2506.04 160.004 2505.72 160.003H2496.53C2496.22 160.002 2495.92 159.88 2495.71 159.664C2495.6 159.556 2495.51 159.427 2495.46 159.286C2495.4 159.145 2495.37 158.994 2495.37 158.841V156.702C2495.37 156.525 2495.32 156.353 2495.22 156.205C2495.13 156.057 2494.99 155.943 2494.83 155.876C2494.65 155.809 2494.47 155.794 2494.3 155.832C2494.13 155.87 2493.97 155.959 2493.85 156.088C2491.1 159.094 2486.64 161.266 2479.5 161.266C2469.01 161.266 2462.08 155.794 2462.08 146.333ZM2495.46 140.139V137.922L2483.49 138.554C2477.19 138.875 2473.52 141.499 2473.52 145.916C2473.52 149.91 2476.89 152.121 2482.76 152.121C2490.74 152.121 2495.46 147.806 2495.46 140.139ZM2516.14 181.598V173.317C2516.15 173.143 2516.18 172.972 2516.26 172.815C2516.33 172.658 2516.44 172.521 2516.58 172.411C2516.71 172.301 2516.87 172.223 2517.04 172.18C2517.2 172.137 2517.39 172.133 2517.56 172.166C2518.96 172.431 2520.4 172.566 2521.84 172.572C2524.3 172.693 2526.74 171.98 2528.76 170.548C2530.78 169.116 2532.25 167.047 2532.96 164.674L2533.56 162.767C2533.65 162.511 2533.65 162.233 2533.56 161.977L2514.39 112.67C2514.32 112.492 2514.3 112.299 2514.32 112.108C2514.34 111.918 2514.41 111.736 2514.51 111.577C2514.62 111.418 2514.77 111.288 2514.93 111.197C2515.1 111.107 2515.29 111.059 2515.48 111.057H2524.77C2525.02 111.06 2525.25 111.133 2525.44 111.27C2525.64 111.405 2525.79 111.597 2525.87 111.819L2538.88 146.593C2538.96 146.824 2539.12 147.024 2539.31 147.166C2539.51 147.307 2539.75 147.383 2540.01 147.383C2540.25 147.383 2540.49 147.307 2540.69 147.166C2540.89 147.024 2541.04 146.824 2541.12 146.593L2552.42 111.914C2552.5 111.677 2552.65 111.472 2552.85 111.326C2553.06 111.179 2553.3 111.102 2553.55 111.102H2563.17C2563.36 111.103 2563.55 111.151 2563.72 111.242C2563.89 111.332 2564.03 111.462 2564.14 111.621C2564.25 111.781 2564.32 111.964 2564.34 112.155C2564.37 112.347 2564.34 112.541 2564.27 112.722L2543.77 167.478C2539.05 180.205 2530.95 183.46 2522.05 183.46C2520.35 183.505 2518.66 183.303 2517.03 182.857C2516.75 182.784 2516.52 182.619 2516.36 182.389C2516.19 182.159 2516.12 181.879 2516.14 181.598ZM2344.71 82.3137C2332.49 82.2266 2320.71 86.8297 2311.78 95.1764C2311.4 95.5264 2311.17 96.0063 2311.12 96.5226C2311.07 97.0387 2311.22 97.5543 2311.53 97.9689L2317.05 105.529C2317.23 105.78 2317.46 105.99 2317.73 106.141C2317.99 106.294 2318.3 106.385 2318.61 106.409C2318.92 106.434 2319.22 106.39 2319.51 106.282C2319.8 106.174 2320.06 106.003 2320.28 105.782C2323.49 102.569 2327.31 100.028 2331.51 98.3085C2335.71 96.5892 2340.21 95.7257 2344.75 95.7687C2363.7 95.7687 2373.59 110.053 2373.59 124.157C2373.59 139.491 2363.19 150.277 2348.26 150.491C2336.7 150.491 2328 142.825 2328 132.698C2328.01 130.14 2328.59 127.615 2329.7 125.309C2330.8 123.001 2332.4 120.968 2334.38 119.356C2334.8 119.005 2335.07 118.504 2335.12 117.959C2335.17 117.415 2335.01 116.871 2334.67 116.445L2328.86 109.1C2328.68 108.878 2328.47 108.693 2328.22 108.556C2327.97 108.42 2327.7 108.335 2327.42 108.306C2327.14 108.277 2326.85 108.305 2326.58 108.388C2326.31 108.471 2326.06 108.608 2325.85 108.789C2322.28 111.667 2319.4 115.308 2317.42 119.446C2315.44 123.583 2314.42 128.111 2314.41 132.698C2314.41 150.13 2329.2 163.806 2348.16 163.918H2348.41C2370.91 163.625 2387.17 146.937 2387.17 124.128C2387.17 103.876 2372.28 82.3137 2344.71 82.3137Z"></path>
<path stroke-width="3" stroke="#D9D9D9" fill="white" d="M2190.79 7H1930.09C1910.71 7 1895 22.7353 1895 42.1458V202.812C1895 222.223 1910.71 237.958 1930.09 237.958H2190.79C2210.17 237.958 2225.88 222.223 2225.88 202.812V42.1458C2225.88 22.7353 2210.17 7 2190.79 7Z"></path>
<path fill="#28356A" d="M2036.52 187.231L2038.73 172.68L2033.8 172.56H2010.26L2026.62 65.1787C2026.67 64.8535 2026.84 64.5517 2027.08 64.337C2027.32 64.1222 2027.62 64.0044 2027.95 64.0044H2067.65C2080.82 64.0044 2089.92 66.8426 2094.66 72.4452C2096.89 75.0735 2098.31 77.8208 2098.99 80.8431C2099.71 84.0149 2099.72 87.804 2099.02 92.4263L2098.97 92.7625V95.7246L2101.2 97.0301C2103.07 98.0596 2104.57 99.2376 2105.71 100.586C2107.62 102.834 2108.84 105.691 2109.36 109.076C2109.9 112.558 2109.72 116.704 2108.84 121.395C2107.83 126.792 2106.18 131.493 2103.97 135.338C2101.93 138.882 2099.33 141.822 2096.25 144.099C2093.3 146.264 2089.8 147.907 2085.85 148.958C2082.01 149.992 2077.64 150.513 2072.84 150.513H2069.75C2067.54 150.513 2065.39 151.336 2063.72 152.812C2062.02 154.32 2060.91 156.378 2060.56 158.63L2060.33 159.94L2056.42 185.589L2056.25 186.53C2056.2 186.829 2056.12 186.977 2056 187.078C2055.89 187.17 2055.74 187.231 2055.6 187.231H2036.52Z" clip-rule="evenodd" fill-rule="evenodd"></path>
<path fill="#298FC2" d="M2103.31 93.1045C2103.19 93.8885 2103.05 94.6898 2102.9 95.5131C2097.67 123.335 2079.76 132.946 2056.89 132.946H2045.24C2042.44 132.946 2040.09 135.049 2039.65 137.905L2031.99 188.146C2031.71 190.022 2033.11 191.712 2034.94 191.712H2055.6C2058.04 191.712 2060.12 189.872 2060.5 187.375L2060.71 186.289L2064.6 160.741L2064.85 159.34C2065.22 156.834 2067.31 154.993 2069.75 154.993H2072.84C2092.86 154.993 2108.53 146.584 2113.1 122.245C2115.02 112.077 2114.02 103.587 2108.97 97.6163C2107.43 95.8162 2105.53 94.3216 2103.31 93.1045Z" clip-rule="evenodd" fill-rule="evenodd"></path>
<path fill="#22284F" d="M2097.83 90.8443C2097.03 90.6026 2096.21 90.3842 2095.36 90.1867C2094.51 89.994 2093.64 89.8235 2092.74 89.6737C2089.6 89.1486 2086.16 88.8994 2082.48 88.8994H2051.37C2050.59 88.8994 2049.86 89.0787 2049.22 89.4025C2047.78 90.1167 2046.71 91.5229 2046.45 93.2444L2039.84 136.64L2039.64 137.905C2040.09 135.049 2042.44 132.947 2045.24 132.947H2056.88C2079.76 132.947 2097.67 123.33 2102.9 95.5132C2103.06 94.6898 2103.19 93.8886 2103.3 93.1046C2101.98 92.3768 2100.55 91.7548 2099 91.2247C2098.62 91.0934 2098.23 90.967 2097.83 90.8443Z" clip-rule="evenodd" fill-rule="evenodd"></path>
<path fill="#28356A" d="M2046.45 93.2449C2046.71 91.5233 2047.79 90.1172 2049.22 89.408C2049.87 89.0828 2050.59 88.9037 2051.37 88.9037H2082.48C2086.16 88.9037 2089.6 89.154 2092.75 89.6792C2093.64 89.8276 2094.51 89.9994 2095.36 90.192C2096.21 90.3883 2097.04 90.6081 2097.83 90.8486C2098.23 90.9713 2098.62 91.0988 2099.01 91.2252C2100.56 91.7553 2101.99 92.3823 2103.31 93.105C2104.87 82.8237 2103.3 75.8234 2097.93 69.4846C2092.01 62.5051 2081.33 59.5186 2067.65 59.5186H2027.95C2025.17 59.5186 2022.78 61.6205 2022.35 64.4819L2005.81 172.968C2005.48 175.114 2007.09 177.05 2009.17 177.05H2033.69L2046.45 93.2449Z" clip-rule="evenodd" fill-rule="evenodd"></path>
<path stroke-width="3" stroke="#D9D9D9" fill="white" d="M1814.79 7H1554.09C1534.71 7 1519 22.7353 1519 42.1458V202.812C1519 222.223 1534.71 237.958 1554.09 237.958H1814.79C1834.17 237.958 1849.88 222.223 1849.88 202.812V42.1458C1849.88 22.7353 1834.17 7 1814.79 7Z"></path>
<path fill="black" d="M1608.73 85.759C1605.87 89.2927 1601.29 92.0798 1596.72 91.6816C1596.15 86.9037 1598.38 81.8272 1601.01 78.6917C1603.87 75.0585 1608.87 72.4706 1612.93 72.2715C1613.4 77.2484 1611.55 82.1259 1608.73 85.759ZM1612.88 92.6271C1608.85 92.3849 1605.17 93.8931 1602.19 95.1113C1600.28 95.8951 1598.66 96.559 1597.43 96.559C1596.05 96.559 1594.36 95.8597 1592.47 95.0745C1589.98 94.0456 1587.14 92.8694 1584.17 92.9258C1577.35 93.0253 1571.01 97.0566 1567.53 103.477C1560.37 116.317 1565.66 135.329 1572.58 145.782C1575.97 150.957 1580.02 156.631 1585.37 156.432C1587.71 156.339 1589.4 155.59 1591.15 154.816C1593.17 153.924 1595.25 152.997 1598.52 152.997C1601.68 152.997 1603.68 153.9 1605.6 154.766C1607.43 155.59 1609.18 156.38 1611.79 156.332C1617.31 156.233 1620.8 151.156 1624.18 145.98C1627.84 140.425 1629.44 135.003 1629.68 134.18L1629.71 134.085C1629.7 134.079 1629.66 134.058 1629.58 134.02C1628.36 133.436 1619.03 128.976 1618.94 117.014C1618.85 106.974 1626.35 101.888 1627.52 101.087C1627.59 101.039 1627.64 101.006 1627.66 100.988C1622.9 93.6226 1615.46 92.8263 1612.88 92.6271ZM1651.17 155.785V78.1941H1679.08C1693.47 78.1941 1703.54 88.5461 1703.54 103.676C1703.54 118.806 1693.28 129.258 1678.69 129.258H1662.71V155.785H1651.17ZM1662.71 88.347H1676.02C1686.03 88.347 1691.76 93.9212 1691.76 103.726C1691.76 113.531 1686.03 119.154 1675.98 119.154H1662.71V88.347ZM1741.64 146.477C1738.59 152.55 1731.87 156.381 1724.62 156.381C1713.89 156.381 1706.4 149.713 1706.4 139.659C1706.4 129.706 1713.65 123.982 1727.05 123.136L1741.45 122.24V117.96C1741.45 111.639 1737.49 108.205 1730.44 108.205C1724.62 108.205 1720.38 111.341 1719.51 116.118H1709.12C1709.46 106.065 1718.51 98.7488 1730.77 98.7488C1743.98 98.7488 1752.56 105.965 1752.56 117.164V155.785H1741.88V146.477H1741.64ZM1727.72 147.174C1721.57 147.174 1717.66 144.088 1717.66 139.361C1717.66 134.484 1721.42 131.647 1728.63 131.199L1741.45 130.352V134.733C1741.45 141.999 1735.54 147.174 1727.72 147.174ZM1788 158.821C1783.37 172.408 1778.08 176.887 1766.83 176.887C1765.97 176.887 1763.11 176.787 1762.44 176.588V167.282C1763.15 167.381 1764.91 167.481 1765.83 167.481C1770.93 167.481 1773.79 165.241 1775.55 159.418L1776.61 155.984L1757.05 99.4954H1769.12L1782.7 145.334H1782.94L1796.54 99.4954H1808.27L1788 158.821Z" clip-rule="evenodd" fill-rule="evenodd"></path>
<path stroke-width="3" stroke="#D9D9D9" fill="white" d="M1438.79 7H1178.09C1158.71 7 1143 22.7353 1143 42.1458V202.812C1143 222.223 1158.71 237.958 1178.09 237.958H1438.79C1458.17 237.958 1473.88 222.223 1473.88 202.812V42.1458C1473.88 22.7353 1458.17 7 1438.79 7Z"></path>
<path fill="#ED0006" d="M1310.23 170.975C1298.36 180.997 1282.96 187.047 1266.14 187.047C1228.59 187.047 1198.15 156.925 1198.15 119.768C1198.15 82.6106 1228.59 52.4888 1266.14 52.4888C1282.96 52.4888 1298.36 58.5389 1310.23 68.5609C1322.11 58.5389 1337.51 52.4888 1354.33 52.4888C1391.88 52.4888 1422.32 82.6106 1422.32 119.768C1422.32 156.925 1391.88 187.047 1354.33 187.047C1337.51 187.047 1322.11 180.997 1310.23 170.975Z" clip-rule="evenodd" fill-rule="evenodd"></path>
<path fill="#F9A000" d="M1310.23 170.975C1324.85 158.634 1334.12 140.272 1334.12 119.768C1334.12 99.2632 1324.85 80.9011 1310.23 68.5609C1322.11 58.5389 1337.51 52.4888 1354.33 52.4888C1391.88 52.4888 1422.32 82.6106 1422.32 119.768C1422.32 156.925 1391.88 187.047 1354.33 187.047C1337.51 187.047 1322.11 180.997 1310.23 170.975Z" clip-rule="evenodd" fill-rule="evenodd"></path>
<path fill="#FF5E00" d="M1310.23 170.975C1324.85 158.635 1334.12 140.272 1334.12 119.768C1334.12 99.2633 1324.85 80.9012 1310.23 68.561C1295.62 80.9012 1286.35 99.2633 1286.35 119.768C1286.35 140.272 1295.62 158.635 1310.23 170.975Z" clip-rule="evenodd" fill-rule="evenodd"></path>
<path stroke-width="3" stroke="#D9D9D9" fill="white" d="M1062.79 7H802.093C782.712 7 767 22.7353 767 42.1458V202.812C767 222.223 782.712 237.958 802.093 237.958H1062.79C1082.17 237.958 1097.88 222.223 1097.88 202.812V42.1458C1097.88 22.7353 1082.17 7 1062.79 7Z"></path>
<path fill="black" d="M1056.71 93.4675C1067.19 93.4675 1072.95 98.3231 1072.95 107.494C1073.48 114.508 1068.76 120.443 1062.48 121.522L1076.62 141.483H1065.61L1053.56 122.062H1052.52V141.483H1043.61V93.4675H1056.71ZM1052.52 115.588H1055.14C1060.9 115.588 1063.52 112.89 1063.52 108.035C1063.52 103.719 1060.9 101.021 1055.14 101.021H1052.52V115.588ZM1012.68 141.483H1037.84V133.391H1021.6V120.443H1037.32V112.35H1021.6V101.56H1037.84V93.4675H1012.68V141.483ZM986.486 125.838L974.433 93.4675H965.001L984.39 142.563H989.106L1008.49 93.4675H999.063L986.486 125.838ZM880.106 117.746C880.106 131.233 890.587 142.563 903.688 142.563C907.88 142.563 911.548 141.483 915.216 139.866V129.075C912.596 132.312 908.927 134.47 904.735 134.47C896.351 134.47 889.538 127.996 889.538 119.364V118.285C889.014 109.653 895.827 102.1 904.212 101.56C908.404 101.56 912.596 103.719 915.216 106.955V96.1651C912.072 94.0072 907.88 93.4676 904.212 93.4676C890.587 92.3887 880.106 103.719 880.106 117.746ZM863.861 111.811C858.62 109.653 857.047 108.574 857.047 105.877C857.572 102.639 860.192 99.9417 863.336 100.481C865.956 100.481 868.576 102.1 870.673 104.258L875.389 97.7836C871.72 94.5466 867.005 92.3886 862.288 92.3886C854.952 91.8491 848.663 97.7836 848.139 105.336V105.877C848.139 112.35 850.759 116.127 859.144 118.824C861.24 119.364 863.336 120.443 865.433 121.522C867.005 122.601 868.053 124.22 868.053 126.378C868.053 130.154 864.908 133.391 861.764 133.391H861.24C857.048 133.391 853.38 130.694 851.808 126.917L846.043 132.852C849.188 138.786 855.475 142.024 861.764 142.024C870.148 142.563 876.961 136.089 877.485 127.456V125.838C876.961 119.364 874.341 116.127 863.861 111.811ZM833.466 141.483H842.374V93.4675H833.466V141.483ZM792.067 93.4677H805.168H807.787C820.365 94.0072 830.321 104.797 829.798 117.746C829.798 124.759 826.654 131.233 821.413 136.089C816.696 139.866 810.932 142.024 805.168 141.484H792.067V93.4677ZM803.595 133.391C807.787 133.931 812.504 132.312 815.648 129.614C818.793 126.378 820.365 122.062 820.365 117.206C820.365 112.89 818.793 108.574 815.648 105.336C812.504 102.639 807.787 101.021 803.595 101.56H800.975V133.391H803.595Z" clip-rule="evenodd" fill-rule="evenodd"></path>
<path fill="#FD6020" d="M941.942 92.3545C928.841 92.3545 917.836 103.144 917.836 117.171C917.836 130.659 928.317 141.989 941.942 142.529C955.568 143.068 966.048 131.739 966.573 117.712C966.048 103.685 955.568 92.3545 941.942 92.3545Z" clip-rule="evenodd" fill-rule="evenodd"></path>
<path stroke-width="3" stroke="#D9D9D9" fill="#1F72CD" d="M678.8 2H418.107C395.956 2 378 19.9832 378 42.1667V202.833C378 225.017 395.956 243 418.107 243H678.8C700.95 243 718.907 225.017 718.907 202.833V42.1667C718.907 19.9832 700.95 2 678.8 2Z"></path>
<path fill="white" d="M439.117 87.3542L407.221 160.123H445.404L450.138 148.521H460.959L465.692 160.123H507.722V151.268L511.467 160.123H533.208L536.953 151.081V160.123H624.363L634.993 148.822L644.945 160.123L689.84 160.218L657.844 123.942L689.84 87.3542H645.641L635.294 98.4466L625.656 87.3542H530.565L522.399 106.136L514.042 87.3542H475.937V95.9083L471.699 87.3542H439.117ZM446.505 97.6876H465.118L486.274 147.033V97.6876H506.663L523.005 133.068L538.065 97.6876H558.353V149.905H546.008L545.907 108.988L527.91 149.905H516.867L498.769 108.988V149.905H473.374L468.559 138.198H442.549L437.744 149.894H424.138L446.505 97.6876ZM619.841 97.6876H569.646V149.874H619.064L634.993 132.578L650.344 149.874H666.393L643.067 123.932L666.393 97.6876H651.041L635.194 114.784L619.841 97.6876ZM455.559 106.523L446.989 127.376H464.119L455.559 106.523ZM582.042 118.032V108.499L613.362 108.49L627.028 123.734L612.756 139.062H582.042V128.656H609.426V118.032H582.042Z" clip-rule="evenodd" fill-rule="evenodd"></path>
<path stroke-width="3" stroke="#D9D9D9" fill="white" d="M297.8 7.02051H37.1065C17.725 7.02051 2.01318 22.7558 2.01318 42.1663V202.833C2.01318 222.243 17.725 237.979 37.1065 237.979H297.8C317.181 237.979 332.893 222.243 332.893 202.833V42.1663C332.893 22.7558 317.181 7.02051 297.8 7.02051Z"></path>
<path fill="#172B85" d="M104.79 161.244H84.1368L68.6501 100.332C67.915 97.5302 66.3543 95.0531 64.0585 93.8857C58.3289 90.9518 52.0154 88.6168 45.1279 87.4392V85.0941H78.3972C82.9889 85.0941 86.4326 88.6168 87.0066 92.7081L95.042 136.646L115.685 85.0941H135.763L104.79 161.244ZM147.242 161.244H127.738L143.798 85.0941H163.302L147.242 161.244ZM188.536 106.19C189.11 102.088 192.554 99.7434 196.572 99.7434C202.885 99.1545 209.763 100.332 215.502 103.255L218.946 86.8606C213.206 84.5155 206.893 83.3379 201.163 83.3379C182.233 83.3379 168.458 93.8857 168.458 108.524C168.458 119.662 178.215 125.509 185.103 129.031C192.554 132.544 195.424 134.89 194.85 138.402C194.85 143.671 189.11 146.016 183.381 146.016C176.493 146.016 169.606 144.26 163.302 141.325L159.859 157.731C166.746 160.655 174.197 161.832 181.086 161.832C202.311 162.411 215.502 151.873 215.502 136.057C215.502 116.139 188.536 114.971 188.536 106.19ZM283.763 161.244L268.275 85.0941H251.641C248.198 85.0941 244.754 87.4392 243.606 90.9518L214.929 161.244H235.007L239.015 150.117H263.684L265.98 161.244H283.763ZM254.511 105.601L260.24 134.3H244.18L254.511 105.601Z" clip-rule="evenodd" fill-rule="evenodd"></path>
<path stroke-width="3" stroke="#D9D9D9" fill="white" d="M2942.79 7H2682.09C2662.71 7 2647 22.7353 2647 42.1458V202.812C2647 222.223 2662.71 237.958 2682.09 237.958H2942.79C2962.17 237.958 2977.88 222.223 2977.88 202.812V42.1458C2977.88 22.7353 2962.17 7 2942.79 7Z"></path>
<g clip-path="url(#clip0_208_12)">
<path fill="#FF9900" d="M2913.87 141.378C2911.54 140.589 2909.1 140.246 2906.66 140.04C2902.16 139.663 2897.66 139.869 2893.19 140.692C2888.28 141.618 2883.6 143.196 2879.45 146.043C2878.96 146.386 2878.48 146.764 2878.17 147.244C2877.93 147.621 2877.87 148.204 2878 148.616C2878.14 149.13 2878.72 149.268 2879.24 149.233C2879.48 149.233 2879.76 149.233 2880 149.199C2882.68 148.925 2885.32 148.616 2888 148.341C2891.92 147.964 2895.87 147.724 2899.79 148.033C2901.44 148.136 2903.12 148.513 2904.73 148.959C2906.49 149.439 2907.28 150.743 2907.35 152.526C2907.48 155.271 2906.86 157.912 2906.14 160.519C2904.73 165.801 2902.71 170.912 2900.71 175.989C2900.58 176.332 2900.44 176.675 2900.37 177.018C2900.2 178.013 2900.78 178.665 2901.78 178.424C2902.36 178.287 2903.02 177.979 2903.43 177.567C2904.94 176.092 2906.49 174.617 2907.79 172.97C2912.19 167.345 2914.77 160.862 2916.28 153.898C2916.55 152.664 2916.76 151.394 2917 150.16V144.225C2916.66 142.51 2915.35 141.858 2913.87 141.378ZM2896.32 155.476C2895.22 155.202 2894.19 155.476 2893.19 155.888C2875.19 163.434 2856.46 168.271 2837.08 170.569C2831.14 171.255 2825.16 171.736 2819.18 171.873C2808.25 172.147 2797.36 171.53 2786.54 170.089C2779.22 169.129 2772.01 167.757 2764.83 166.041C2749.64 162.371 2735.04 157.157 2721.05 150.16C2717.41 148.341 2713.91 146.352 2710.33 144.431C2708.79 143.608 2707.79 143.848 2707 145.289V145.975C2707.48 146.626 2707.89 147.381 2708.51 147.93C2723.29 161.102 2739.95 171.05 2758.54 177.773C2767.54 181.031 2776.75 183.398 2786.16 184.942C2791.9 185.868 2797.67 186.52 2803.48 186.76C2804.68 186.794 2805.92 186.829 2807.16 186.897C2807.43 186.897 2807.74 186.966 2808.01 187H2815.26C2815.54 186.966 2815.85 186.897 2816.12 186.897C2822.24 186.76 2828.35 186.142 2834.4 185.251C2843.16 183.947 2851.75 181.923 2860.21 179.213C2872.37 175.269 2883.88 170.02 2894.43 162.783C2895.56 161.994 2896.76 161.205 2897.72 160.244C2899.41 158.564 2898.62 156.094 2896.32 155.476Z"></path>
<path fill="black" d="M2782.59 69.2406C2779.67 62.5174 2774.82 58.0924 2767.51 56.5831C2766.41 56.343 2765.27 56.2401 2764.14 56.0686C2763.18 56.0343 2762.25 56.0343 2761.29 56.0343C2760.81 56.1029 2760.29 56.1715 2759.81 56.2401C2755 56.8233 2750.67 58.607 2746.75 61.4197C2745.93 62.0029 2745.17 62.6203 2744.31 63.2721C2744.24 63.1005 2744.18 62.929 2744.18 62.7918C2744.04 61.8657 2743.9 60.9052 2743.73 59.9791C2743.49 58.4012 2742.7 57.7151 2741.12 57.7151H2737.17C2734.8 57.7151 2734.35 58.161 2734.35 60.5279V132.322C2734.35 132.665 2734.35 133.008 2734.38 133.351C2734.45 134.38 2735.07 135.032 2736.07 135.067C2738.47 135.101 2740.91 135.101 2743.32 135.067C2744.31 135.067 2744.93 134.38 2745.04 133.351C2745.07 133.008 2745.07 132.665 2745.07 132.322V107.488C2745.45 107.796 2745.65 107.968 2745.83 108.139C2751.98 113.25 2759.05 114.931 2766.78 113.422C2773.79 112.05 2778.67 107.762 2781.83 101.45C2784.24 96.6824 2785.23 91.6057 2785.37 86.3231C2785.54 80.4574 2784.96 74.6947 2782.59 69.2406ZM2773.07 95.4475C2770.74 102.754 2765.38 105.532 2758.43 105.224C2753.62 105.018 2749.43 103.165 2745.58 100.456C2745.17 100.147 2745 99.8725 2745 99.3236C2745.04 94.487 2745 89.6847 2745 84.8481C2745 80.0115 2745.04 75.2435 2745 70.4069C2745 69.8924 2745.14 69.5837 2745.58 69.2749C2750.29 66.0162 2755.48 64.3011 2761.25 64.7471C2766.37 65.1244 2770.56 67.6284 2772.76 73.6313C2774.1 77.3016 2774.45 81.1092 2774.45 84.951C2774.45 88.5185 2774.17 92.0173 2773.07 95.4475ZM2837.49 69.3092C2836.84 64.8843 2834.95 61.2482 2830.97 58.8814C2828.66 57.5093 2826.12 56.8233 2823.48 56.4459C2822.24 56.2744 2821 56.1715 2819.77 56C2818.43 56.0343 2817.05 56.0343 2815.68 56.0343C2815.33 56.0686 2814.99 56.1372 2814.68 56.1715C2811.31 56.343 2808.01 56.7546 2804.75 57.5779C2802.65 58.1267 2800.63 58.8814 2798.6 59.5674C2797.36 59.9791 2796.74 60.8709 2796.78 62.2087C2796.81 63.3407 2796.74 64.4726 2796.78 65.6046C2796.81 67.2511 2797.5 67.697 2799.12 67.2854C2801.8 66.5994 2804.48 65.8447 2807.19 65.3302C2811.42 64.5412 2815.68 64.1982 2819.97 64.85C2822.2 65.193 2824.3 65.8447 2825.74 67.7313C2827.01 69.3778 2827.5 71.3331 2827.56 73.3569C2827.67 76.204 2827.63 79.0511 2827.67 81.8981C2827.67 82.0353 2827.63 82.2069 2827.6 82.3784C2827.43 82.3441 2827.29 82.3784 2827.15 82.3441C2823.54 81.4865 2819.9 80.8691 2816.16 80.6633C2812.27 80.4574 2808.43 80.6976 2804.72 82.001C2800.28 83.5446 2796.71 86.2202 2794.61 90.5423C2793 93.9039 2792.76 97.4713 2793.27 101.073C2793.96 105.875 2796.37 109.58 2800.63 111.947C2804.72 114.211 2809.15 114.485 2813.65 113.799C2818.84 113.01 2823.44 110.815 2827.5 107.488C2827.63 107.35 2827.8 107.247 2828.05 107.11C2828.25 108.414 2828.42 109.649 2828.66 110.883C2828.87 111.947 2829.52 112.633 2830.52 112.667C2832.37 112.701 2834.26 112.701 2836.12 112.667C2837.05 112.633 2837.67 112.015 2837.77 111.055C2837.8 110.746 2837.8 110.403 2837.8 110.095V73.7342C2837.8 72.2592 2837.73 70.7842 2837.49 69.3092ZM2827.74 95.0016C2827.7 96.6138 2827.67 98.226 2827.7 99.8382C2827.7 100.284 2827.56 100.593 2827.19 100.867C2823.34 103.646 2819.11 105.498 2814.34 105.978C2812.38 106.184 2810.42 106.115 2808.56 105.361C2806.4 104.503 2804.99 102.994 2804.3 100.799C2803.62 98.6033 2803.62 96.3394 2804.27 94.144C2805.13 91.2969 2807.16 89.6847 2809.9 88.7929C2812.69 87.901 2815.57 87.7638 2818.43 88.0382C2821.31 88.2783 2824.13 88.8272 2827.01 89.2045C2827.56 89.2731 2827.74 89.5475 2827.74 90.0964C2827.7 91.7429 2827.74 93.3551 2827.74 95.0016ZM2896.56 57.6808C2894.29 57.6465 2891.99 57.6808 2889.72 57.6808C2888.45 57.6808 2887.55 58.2296 2887.07 59.4645C2886.9 59.9447 2886.7 60.3907 2886.52 60.8709C2882.54 72.2935 2878.55 83.7162 2874.57 95.1731C2873.71 97.6428 2872.81 100.147 2871.92 102.788C2871.78 102.411 2871.72 102.205 2871.61 101.965C2867.18 89.719 2862.75 77.4389 2858.32 65.193C2857.63 63.2378 2856.87 61.3168 2856.15 59.3959C2855.77 58.4012 2855.05 57.7494 2853.95 57.7494C2851.34 57.7151 2848.73 57.6808 2846.08 57.7151C2845.22 57.7151 2844.81 58.4012 2844.98 59.2587C2845.16 59.9791 2845.36 60.6651 2845.64 61.3511C2852.37 77.9877 2859.14 94.6586 2865.94 111.261C2866.53 112.667 2866.66 113.868 2866.01 115.308C2864.88 117.813 2863.98 120.454 2862.82 122.958C2861.79 125.187 2860.07 126.868 2857.59 127.52C2855.84 128 2854.09 128.069 2852.3 127.897C2851.44 127.829 2850.58 127.623 2849.73 127.554C2848.56 127.486 2847.97 128 2847.94 129.201C2847.9 130.333 2847.9 131.465 2847.94 132.597C2847.97 134.483 2848.63 135.341 2850.48 135.65C2852.41 135.993 2854.36 136.301 2856.29 136.336C2862.16 136.473 2866.84 134.106 2869.86 128.995C2871.06 126.971 2872.16 124.844 2873.02 122.683C2881.16 102.171 2889.2 81.6237 2897.28 61.0767C2897.52 60.4593 2897.72 59.8418 2897.83 59.1901C2897.97 58.2296 2897.52 57.6808 2896.56 57.6808Z"></path>
</g>
<g clip-path="url(#clip1_208_12)">
<path fill="#B2FCE4" d="M3352.74 7H3051.26C3035.25 7 3023 19.2417 3023 35.25V204.75C3023 220.758 3036.19 233 3051.26 233H3352.74C3368.75 233 3381 220.758 3381 204.75V35.25C3381 19.2417 3367.81 7 3352.74 7Z"></path>
<path fill="black" d="M3281.14 71.0332L3255.7 55.9665L3230.26 40.8998C3213.31 31.4832 3191.64 43.7248 3191.64 63.4998V67.2665C3191.64 69.1498 3192.58 71.0332 3194.46 71.9748L3206.71 78.5665C3210.48 80.4498 3214.25 77.6248 3214.25 73.8582V66.3248C3214.25 62.5582 3218.02 59.7332 3221.78 61.6165L3245.34 74.7998L3267.95 88.9248C3271.72 90.8082 3271.72 95.5165 3267.95 97.3999L3244.39 110.583L3220.84 125.65C3217.07 127.533 3213.31 124.708 3213.31 120.942V117.175C3213.31 97.3998 3191.64 85.1582 3174.68 94.5749L3149.24 109.642L3123.81 124.708C3106.85 134.125 3106.85 159.55 3123.81 168.967L3149.24 184.033L3174.68 199.1C3191.64 208.517 3213.31 196.275 3213.31 176.5V172.733C3213.31 170.85 3212.36 168.967 3210.48 168.025L3198.23 161.433C3194.46 159.55 3190.69 162.375 3190.69 166.142V173.675C3190.69 177.442 3186.93 180.267 3183.16 178.383L3159.61 165.2L3136.05 151.075C3132.28 149.192 3132.28 144.483 3136.05 142.6L3159.61 129.417L3183.16 116.233C3186.93 114.35 3190.69 117.175 3190.69 120.942V124.708C3190.69 144.483 3212.36 156.725 3229.32 147.308L3254.76 132.242L3280.19 117.175C3298.09 105.875 3298.09 81.3915 3281.14 71.0332Z"></path>
</g>
<defs>
<clipPath id="clip0_208_12">
<rect transform="translate(2707 56)" fill="white" height="131" width="210"></rect>
</clipPath>
<clipPath id="clip1_208_12">
<rect transform="translate(3023 7)" fill="white" height="226" width="358"></rect>
</clipPath>
</defs>
</svg>
